<?xml version="1.0" standalone="no"?>
<!DOCTYPE svg PUBLIC "-//W3C//DTD SVG 20010904//EN"
 "http://www.w3.org/TR/2001/REC-SVG-20010904/DTD/svg10.dtd">
<svg version="1.0" xmlns="http://www.w3.org/2000/svg"
 width="432.000000pt" height="432.000000pt" viewBox="0 0 432.000000 432.000000"
 preserveAspectRatio="xMidYMid meet">
<metadata>
Created by potrace 1.14, written by Peter Selinger 2001-2017
</metadata>
<g transform="translate(0.000000,432.000000) scale(0.100000,-0.100000)"
fill="#000000" stroke="none">
<path d="M2086 3928 c-16 -6 -36 -18 -46 -27 -9 -9 -26 -23 -36 -32 -10 -8
-28 -28 -39 -43 -11 -16 -26 -34 -33 -42 -7 -8 -11 -14 -7 -14 3 0 -2 -12 -13
-27 -11 -16 -25 -45 -33 -65 -7 -21 -17 -38 -22 -38 -5 0 -7 -6 -4 -14 3 -8 1
-16 -4 -18 -5 -2 -11 -13 -12 -26 0 -12 -4 -22 -7 -22 -7 0 -10 -17 -11 -53 0
-9 -4 -15 -9 -12 -4 3 -11 -2 -14 -11 -4 -11 -10 -13 -19 -7 -6 5 -23 8 -37 6
-61 -7 -90 -8 -90 -2 0 7 -56 3 -77 -6 -7 -2 -15 0 -17 4 -5 8 -116 -17 -126
-29 -3 -3 -12 -6 -20 -8 -8 -2 -16 -8 -18 -13 -2 -5 -9 -9 -16 -9 -7 0 -22
-11 -33 -24 -21 -24 -21 -25 -2 -47 10 -12 19 -26 19 -31 0 -4 7 -8 15 -8 8 0
15 -5 15 -10 0 -6 18 -29 40 -51 22 -22 40 -43 40 -45 0 -3 15 -20 33 -39 17
-19 48 -53 67 -76 52 -61 80 -89 90 -89 5 0 7 -6 4 -13 -2 -7 7 -19 21 -27 14
-7 23 -15 20 -18 -2 -2 13 -21 33 -42 20 -20 46 -48 57 -63 11 -14 37 -43 58
-66 20 -22 37 -45 37 -51 0 -6 5 -8 10 -5 6 3 10 2 10 -2 0 -5 12 -22 28 -38
15 -16 26 -33 25 -37 -2 -5 4 -8 12 -8 8 0 15 -7 15 -16 0 -8 5 -12 10 -9 6 3
10 0 10 -7 0 -22 24 13 55 82 17 36 33 67 38 68 4 2 7 9 7 15 0 16 42 100 55
109 5 4 10 13 10 20 1 15 37 90 47 98 3 3 10 18 13 33 6 22 10 25 21 16 8 -6
14 -17 14 -24 0 -8 3 -15 8 -17 4 -1 23 -34 42 -73 19 -38 37 -72 41 -75 8 -7
22 -44 21 -52 -1 -5 3 -8 9 -8 5 0 7 -4 4 -10 -3 -5 -1 -10 4 -10 6 0 11 -7
11 -15 0 -8 5 -15 10 -15 6 0 10 -8 11 -17 0 -10 14 -40 29 -68 16 -27 38 -70
51 -95 12 -25 29 -53 38 -64 9 -10 14 -19 12 -20 -8 -3 107 -218 123 -228 6
-4 8 -8 3 -8 -8 0 44 -103 56 -108 4 -2 7 -12 7 -23 0 -10 4 -19 9 -19 8 0 24
-37 22 -52 -1 -5 4 -8 10 -8 5 0 7 -4 4 -10 -3 -5 -3 -10 2 -10 8 0 35 -53 33
-65 0 -3 9 -15 20 -27 11 -12 20 -30 20 -40 0 -10 5 -18 11 -18 5 0 8 -4 5 -9
-3 -5 0 -14 7 -19 7 -6 19 -27 27 -47 7 -19 18 -35 22 -35 5 0 7 -4 3 -9 -3
-5 0 -15 7 -23 7 -7 14 -20 16 -28 2 -8 7 -17 11 -20 9 -6 25 -42 23 -52 -1
-5 2 -8 8 -8 5 0 10 -6 10 -13 0 -7 11 -29 25 -49 14 -20 25 -44 25 -52 0 -9
3 -16 8 -16 8 0 32 -49 32 -67 0 -7 5 -13 10 -13 6 0 10 -6 10 -13 0 -8 9 -22
20 -32 17 -16 20 -16 20 -2 0 9 9 19 21 22 11 4 18 9 15 13 -3 3 3 12 14 19
11 8 18 18 15 23 -3 5 1 12 9 17 8 4 15 10 15 13 0 3 5 19 11 35 17 45 20 64
20 130 -1 100 -3 125 -10 125 -4 0 -8 24 -9 53 -1 28 -5 66 -8 82 -2 17 -5 42
-6 58 -1 15 -6 27 -12 27 -5 0 -3 5 5 10 8 5 10 10 5 10 -6 0 -10 12 -9 28 1
15 -1 31 -4 36 -3 5 -7 26 -8 45 -6 61 -12 115 -18 140 -3 13 -6 42 -7 65 -1
22 -7 47 -13 55 -9 12 -8 13 3 6 11 -6 12 -5 5 6 -9 15 -9 17 -17 111 -3 31
-7 61 -10 65 -3 5 -7 35 -8 66 -1 31 -5 57 -9 57 -3 0 -6 18 -5 40 1 22 -2 40
-6 40 -3 0 -5 18 -3 40 2 22 0 40 -5 40 -4 0 -7 10 -8 23 -3 84 -9 137 -14
137 -5 0 -12 61 -10 105 0 11 -5 23 -12 27 -9 6 -9 8 1 8 7 0 10 5 7 11 -4 5
-9 29 -12 52 -2 23 -9 46 -14 51 -5 6 -9 21 -9 34 0 13 -4 20 -10 17 -5 -3
-10 0 -10 8 0 21 -103 127 -123 127 -9 0 -17 4 -17 10 0 9 -77 35 -92 32 -5
-1 -8 3 -8 9 0 8 -4 8 -14 0 -10 -9 -16 -9 -21 -1 -5 8 -10 8 -20 0 -9 -8 -15
-8 -20 0 -4 7 -12 7 -26 0 -10 -6 -19 -7 -19 -2 0 12 -73 10 -82 -3 -5 -7 -10
-7 -15 0 -5 6 -25 10 -46 10 -36 0 -40 3 -54 40 -8 22 -17 50 -20 63 -3 12 -9
22 -14 22 -5 0 -8 4 -7 8 3 8 -41 101 -52 112 -3 3 -11 17 -19 33 -8 15 -18
27 -23 27 -4 0 -8 6 -8 13 0 7 -16 27 -35 44 -19 17 -31 33 -28 37 4 3 -1 6
-9 6 -9 0 -21 7 -28 15 -7 8 -16 13 -20 10 -5 -3 -10 0 -12 6 -5 15 -96 19
-132 7z m158 -76 c39 -33 46 -41 46 -50 0 -6 7 -12 15 -16 8 -3 15 -12 15 -20
0 -7 7 -17 16 -20 9 -4 14 -9 10 -13 -3 -4 3 -16 15 -29 11 -12 21 -29 23 -37
1 -8 7 -21 12 -28 12 -15 41 -87 54 -131 8 -27 -3 -48 -15 -28 -4 7 -12 7 -25
0 -10 -6 -21 -6 -24 -1 -6 8 -65 5 -74 -4 -3 -3 -11 0 -18 6 -8 7 -14 7 -19
-1 -3 -6 -12 -7 -18 -3 -17 11 -41 10 -50 -2 -6 -7 -10 -6 -13 1 -4 11 -53 10
-81 -1 -7 -2 -13 -1 -13 4 0 9 -31 8 -48 -3 -7 -4 -18 -4 -25 1 -7 5 -23 7
-37 6 -35 -4 -103 -5 -115 -3 -5 1 -13 2 -16 2 -11 -2 35 132 61 178 8 14 15
31 16 38 1 8 10 22 18 31 9 10 16 22 16 28 0 6 27 38 59 71 45 46 68 62 93 64
37 4 92 -14 122 -40z"/>
<path d="M1239 3248 c-12 -51 -30 -169 -34 -223 -1 -16 -5 -52 -10 -78 -4 -26
-8 -63 -9 -82 0 -18 -4 -36 -8 -40 -3 -4 -4 -18 -2 -31 2 -13 1 -24 -4 -24 -4
0 -7 -17 -6 -37 1 -21 -3 -46 -8 -55 -6 -13 -5 -18 4 -18 9 0 10 -2 2 -8 -7
-4 -14 -34 -17 -67 -3 -33 -8 -80 -12 -105 -4 -25 -8 -56 -9 -70 -1 -14 -6
-31 -10 -39 -7 -10 -5 -12 5 -6 11 7 12 6 3 -6 -6 -8 -11 -21 -11 -29 0 -22
-12 -131 -19 -165 -7 -41 -16 -114 -17 -157 -1 -21 -4 -38 -7 -38 -3 0 -6 -15
-7 -32 -1 -18 -4 -49 -7 -68 -3 -19 -8 -55 -10 -80 -2 -25 -5 -45 -6 -45 -1 0
-4 -20 -6 -45 -2 -25 -6 -51 -9 -57 -2 -7 1 -13 7 -13 7 0 6 -5 -2 -15 -10
-12 -10 -15 1 -15 11 0 11 -2 -1 -10 -9 -6 -11 -13 -5 -17 6 -5 11 -17 13 -28
9 -54 15 -75 22 -75 4 0 13 -14 20 -30 7 -17 26 -41 41 -55 16 -13 29 -29 29
-36 0 -7 3 -9 6 -6 4 3 18 -3 32 -13 13 -11 31 -20 39 -20 8 0 12 -4 9 -8 -2
-4 5 -9 17 -9 12 -1 38 -5 57 -10 34 -8 1695 -9 1735 0 27 5 31 33 6 47 -12 6
-21 15 -21 19 0 5 -15 25 -32 44 -18 19 -53 58 -78 87 -25 30 -55 64 -67 76
-13 13 -23 26 -23 29 0 3 -18 25 -40 47 -22 23 -40 46 -40 51 0 4 -5 5 -12 1
-7 -5 -9 -2 -5 9 4 10 -1 18 -14 22 -10 4 -19 9 -19 13 0 4 -17 26 -37 49 -21
22 -49 54 -63 70 -73 86 -137 159 -152 175 -10 10 -18 20 -18 23 0 2 -12 17
-27 33 -58 61 -113 123 -113 127 0 9 -40 45 -49 45 -5 0 -13 -9 -16 -20 -3
-11 -11 -20 -17 -20 -6 0 -8 -3 -5 -6 4 -4 -2 -19 -13 -34 -11 -15 -17 -30
-13 -34 3 -3 1 -6 -5 -6 -7 0 -12 -5 -12 -10 0 -6 -11 -28 -25 -50 -14 -22
-23 -40 -19 -40 3 0 -2 -7 -10 -16 -9 -8 -16 -22 -16 -29 0 -7 -6 -20 -14 -27
-16 -17 -61 -100 -58 -110 1 -3 -5 -9 -14 -12 -9 -4 -19 4 -26 22 -7 15 -20
39 -31 55 -10 15 -15 27 -12 27 4 0 -3 12 -14 26 -11 15 -18 30 -15 35 3 5 0
9 -5 9 -6 0 -11 9 -11 19 0 11 -4 21 -9 23 -5 2 -11 10 -13 18 -2 8 -5 17 -8
20 -13 12 -50 82 -50 96 0 8 -4 14 -8 14 -4 0 -14 16 -21 35 -7 19 -17 35 -22
35 -5 0 -9 6 -9 14 0 17 -42 100 -52 104 -5 2 -8 12 -8 23 0 10 -4 19 -9 19
-7 0 -20 27 -25 53 0 4 -5 11 -11 15 -5 4 -21 30 -34 57 -12 28 -29 61 -37 75
-8 14 -31 59 -51 100 -20 41 -41 77 -45 78 -4 2 -6 8 -2 13 3 5 0 9 -6 9 -6 0
-9 4 -6 9 4 5 3 11 -1 13 -7 2 -128 231 -167 315 -6 13 -14 23 -18 23 -5 0 -8
7 -8 16 0 13 -28 52 -31 42z"/>
<path d="M1515 1140 c-16 -18 -16 -21 -1 -44 24 -38 76 -24 76 20 0 17 -8 27
-26 34 -32 13 -28 13 -49 -10z"/>
<path d="M785 1123 c-45 -23 -65 -44 -87 -87 -43 -84 -30 -207 28 -274 46 -54
129 -81 193 -62 24 7 33 4 50 -16 16 -18 30 -24 56 -22 36 2 36 8 1 46 -18 20
-19 25 -6 45 34 54 45 87 48 150 7 108 -36 190 -114 223 -44 19 -132 17 -169
-3z m144 -68 c16 -8 36 -30 45 -49 21 -44 21 -138 0 -178 l-17 -32 -19 25
c-20 23 -49 32 -76 23 -10 -3 -6 -13 13 -36 25 -30 26 -32 9 -39 -34 -12 -90
15 -110 52 -55 106 -3 249 90 249 21 0 50 -7 65 -15z"/>
<path d="M2016 1133 c-3 -3 -5 -101 -6 -219 l0 -214 40 0 40 0 0 49 c0 101 20
105 81 16 44 -64 44 -65 93 -65 37 0 46 3 39 13 -38 48 -123 167 -123 172 0 4
6 12 13 19 21 22 81 90 95 107 11 15 8 17 -30 17 -40 1 -47 -3 -105 -66 l-62
-67 -1 122 0 121 -34 0 c-19 0 -37 -2 -40 -5z"/>
<path d="M2620 919 l0 -219 108 1 c59 0 123 5 142 12 46 16 79 66 74 113 -3
35 -27 84 -42 84 -4 0 -14 4 -22 10 -12 7 -10 13 13 30 35 27 44 77 22 123
-23 49 -54 60 -182 62 l-113 2 0 -218z m210 131 c23 -23 25 -49 6 -75 -10 -13
-30 -20 -75 -23 l-61 -4 0 61 0 61 55 0 c42 0 60 -5 75 -20z m-3 -164 c35 -11
47 -74 19 -103 -6 -7 -41 -14 -76 -15 l-65 -3 -3 54 c-2 29 -1 59 1 65 5 13
87 14 124 2z"/>
<path d="M1147 1023 c-2 -5 -3 -63 -2 -130 1 -94 6 -127 18 -147 35 -53 100
-66 153 -30 42 29 46 29 42 7 -2 -14 5 -19 35 -21 l37 -3 0 165 0 166 -38 0
-38 0 -1 -110 c0 -112 -6 -130 -44 -151 -28 -15 -66 0 -78 29 -5 15 -10 65
-10 112 1 127 3 120 -35 120 -19 0 -37 -3 -39 -7z"/>
<path d="M1510 865 l0 -165 40 0 40 0 -1 163 0 164 -39 1 -40 2 0 -165z"/>
<path d="M1735 1015 c-87 -44 -109 -191 -40 -273 61 -72 207 -58 241 23 19 46
19 45 -26 45 -22 0 -40 -5 -40 -11 0 -19 -28 -39 -55 -39 -39 0 -62 16 -74 51
-15 44 -14 75 5 115 12 26 24 35 52 40 31 6 39 3 60 -22 18 -21 35 -29 59 -30
32 -1 34 1 28 25 -19 76 -129 116 -210 76z"/>
<path d="M3010 909 c0 -180 26 -219 141 -210 9 0 28 13 43 27 l26 27 0 -27 c0
-24 4 -26 39 -26 l40 0 -1 165 -1 165 -39 0 -38 0 0 -110 c0 -105 -1 -112 -25
-136 -18 -18 -32 -23 -52 -19 -46 8 -53 28 -53 150 l0 112 -40 1 -40 2 0 -121z"/>
<path d="M3411 859 c57 -164 59 -173 43 -196 -11 -18 -22 -24 -38 -21 -18 4
-25 -2 -33 -23 -14 -35 -9 -39 44 -39 74 0 93 26 172 250 l69 195 -30 3 c-16
2 -35 1 -42 -1 -7 -3 -27 -57 -46 -121 -19 -64 -37 -116 -40 -116 -3 0 -18 42
-33 93 -46 150 -44 147 -88 147 l-38 0 60 -171z"/>
<path d="M2340 883 l0 -33 99 0 99 0 -2 30 c0 17 -5 30 -11 31 -5 1 -49 2 -97
3 l-88 1 0 -32z"/>
<path d="M62 484 c-44 -18 -62 -85 -36 -135 15 -31 32 -39 80 -39 19 0 34 -4
34 -10 0 -5 7 -7 15 -4 10 4 12 10 6 18 -6 7 -4 18 5 30 20 29 17 89 -6 118
-24 31 -59 39 -98 22z m79 -52 c13 -33 2 -89 -14 -73 -6 6 -17 11 -25 11 -12
0 -12 -3 -2 -15 10 -12 9 -15 -7 -15 -29 0 -43 20 -43 61 0 65 69 88 91 31z"/>
<path d="M360 486 c0 -19 27 -28 33 -11 7 15 -1 25 -20 25 -7 0 -13 -6 -13
-14z"/>
<path d="M2790 485 c0 -8 7 -15 15 -15 8 0 15 7 15 15 0 8 -7 15 -15 15 -8 0
-15 -7 -15 -15z"/>
<path d="M570 399 c0 -81 2 -90 18 -87 11 2 16 11 14 26 -4 29 12 28 36 -3 11
-14 27 -25 36 -25 22 0 20 6 -9 45 -21 27 -23 35 -13 46 7 8 19 22 27 32 24
31 -15 21 -47 -13 l-28 -29 -1 32 c-1 60 -3 67 -18 67 -12 0 -15 -17 -15 -91z"/>
<path d="M719 473 c-2 -23 -1 -134 0 -150 2 -19 96 -17 115 3 18 18 21 55 5
71 -8 8 -8 17 0 30 7 15 6 25 -5 41 -20 29 -113 33 -115 5z m91 -34 c0 -11 -6
-19 -12 -20 -7 0 -21 -2 -30 -4 -13 -2 -18 3 -18 19 0 30 6 34 35 28 16 -3 25
-11 25 -23z m4 -58 c12 -19 -7 -41 -35 -41 -24 0 -29 4 -29 25 0 21 5 25 29
25 17 0 32 -4 35 -9z"/>
<path d="M1410 485 c0 -3 14 -27 30 -53 19 -31 30 -63 30 -86 0 -25 4 -36 15
-36 16 0 17 1 19 46 1 17 17 54 34 82 29 48 30 52 12 52 -13 0 -26 -12 -37
-35 -9 -19 -20 -35 -25 -35 -5 0 -16 16 -25 35 -10 21 -24 35 -35 35 -10 0
-18 -2 -18 -5z"/>
<path d="M2170 400 c0 -72 3 -90 14 -90 11 0 16 15 18 53 3 45 6 52 26 55 15
2 22 -2 23 -15 2 -23 6 -64 8 -80 0 -7 8 -13 16 -13 23 0 21 102 -3 123 -22
20 -43 22 -60 5 -9 -9 -12 -5 -12 20 0 22 -5 32 -15 32 -12 0 -15 -17 -15 -90z"/>
<path d="M3359 475 c0 -8 -1 -33 -1 -55 0 -100 2 -110 17 -110 11 0 15 11 15
39 0 52 8 71 31 71 17 0 33 -31 28 -56 -5 -27 3 -54 16 -54 21 0 20 97 0 125
-13 17 -19 18 -45 8 -29 -11 -30 -10 -30 18 0 30 -29 44 -31 14z"/>
<path d="M3780 466 c0 -8 -6 -16 -12 -19 -10 -4 -10 -7 0 -18 6 -7 12 -30 12
-50 0 -53 9 -69 36 -69 27 0 32 17 9 26 -19 8 -18 84 2 84 7 0 13 7 13 15 0 8
-7 15 -15 15 -8 0 -15 7 -15 15 0 8 -7 15 -15 15 -8 0 -15 -6 -15 -14z"/>
<path d="M4170 465 c0 -8 -4 -15 -10 -15 -5 0 -10 -7 -10 -15 0 -8 5 -15 10
-15 6 0 10 -18 10 -39 0 -55 8 -71 36 -71 26 0 33 17 10 26 -20 8 -19 84 0 84
8 0 14 7 14 16 0 8 -5 12 -11 9 -6 -4 -13 2 -16 14 -6 24 -33 29 -33 6z"/>
<path d="M210 399 c0 -28 5 -59 10 -70 12 -21 50 -25 68 -7 9 9 12 9 12 0 0
-7 7 -12 15 -12 12 0 15 14 15 70 0 56 -3 70 -15 70 -9 0 -15 -10 -16 -22 -1
-13 -2 -30 -3 -38 -2 -8 -3 -23 -4 -33 -1 -13 -9 -17 -24 -15 -19 2 -23 9 -24
44 -2 78 -34 91 -34 13z"/>
<path d="M366 442 c-2 -4 -4 -36 -4 -70 1 -51 4 -62 18 -62 14 0 16 10 14 63
-1 34 -2 65 -3 70 -1 9 -18 9 -25 -1z"/>
<path d="M445 434 c-22 -17 -27 -76 -9 -103 19 -27 74 -28 98 -2 14 15 14 19
3 24 -8 3 -20 0 -26 -6 -19 -19 -40 -16 -48 6 -10 32 -10 40 0 55 11 14 47 16
47 2 0 -5 7 -10 15 -10 21 0 19 27 -3 39 -24 13 -56 10 -77 -5z"/>
<path d="M887 443 c-12 -12 -7 -110 6 -121 6 -6 33 -10 58 -10 l46 1 2 56 c1
56 -11 93 -26 78 -4 -5 -8 -25 -9 -45 -2 -61 -3 -64 -26 -60 -20 3 -23 10 -26
56 -3 49 -10 61 -25 45z"/>
<path d="M1030 423 c5 -15 16 -50 24 -77 16 -49 11 -65 -16 -66 -5 0 -8 -4 -8
-10 0 -5 11 -10 25 -10 17 0 29 9 39 28 17 34 57 154 52 159 -12 12 -34 -14
-45 -55 l-13 -47 -17 50 c-10 28 -25 51 -34 53 -13 3 -14 -2 -7 -25z"/>
<path d="M1582 430 c-45 -42 -17 -120 43 -120 39 0 65 29 65 72 0 32 -34 68
-65 68 -12 0 -31 -9 -43 -20z m69 -17 c0 -5 2 -17 4 -27 8 -43 -36 -71 -55
-35 -17 30 -2 69 26 69 13 0 24 -3 25 -7z"/>
<path d="M1719 441 c-5 -31 2 -106 12 -117 14 -17 51 -18 67 -2 9 9 12 9 12 0
0 -7 6 -12 14 -12 12 0 15 15 14 70 -1 39 -4 70 -7 70 -17 -1 -26 -19 -25 -50
1 -19 -6 -43 -14 -52 -23 -27 -42 -4 -42 52 0 35 -4 47 -15 47 -8 0 -15 -3
-16 -6z"/>
<path d="M1870 380 c0 -56 3 -70 15 -70 8 0 15 6 16 13 4 51 6 74 7 85 1 6 11
12 22 12 11 0 20 7 20 15 0 18 -5 18 -31 5 -13 -7 -19 -7 -19 0 0 5 -7 10 -15
10 -12 0 -15 -14 -15 -70z"/>
<path d="M2048 439 c-10 -5 -18 -21 -18 -35 0 -19 6 -26 30 -30 38 -8 59 -31
35 -40 -9 -4 -21 -2 -28 5 -15 15 -37 14 -37 -3 0 -17 21 -26 60 -26 57 0 67
58 13 75 -18 6 -35 14 -40 18 -12 13 20 27 34 16 6 -6 20 -9 29 -7 17 3 17 4
0 21 -19 19 -52 22 -78 6z"/>
<path d="M2342 433 c-30 -26 -33 -81 -6 -107 20 -20 78 -21 94 -1 6 8 12 30
13 49 2 64 -56 97 -101 59z m71 -67 c-6 -29 -30 -41 -49 -25 -19 16 -18 54 3
74 16 16 18 16 34 -3 9 -12 14 -31 12 -46z"/>
<path d="M2477 443 c-2 -5 -4 -46 -3 -93 1 -68 4 -85 16 -85 10 0 15 9 15 27
-1 24 2 26 31 21 25 -4 35 0 52 21 17 22 19 32 11 59 -8 30 -33 57 -52 57 -4
0 -17 -5 -28 -10 -13 -7 -19 -7 -19 0 0 12 -17 14 -23 3z m89 -47 c6 -24 -10
-66 -24 -66 -27 1 -43 36 -31 68 11 30 47 29 55 -2z"/>
<path d="M2630 355 c0 -78 3 -95 15 -95 14 0 19 17 16 45 0 7 13 9 33 7 26 -3
37 1 50 19 21 31 20 68 -4 99 -17 22 -22 24 -49 13 -18 -6 -33 -7 -37 -2 -16
27 -24 -1 -24 -86z m87 53 c24 -40 -2 -87 -38 -68 -20 11 -22 21 -13 58 7 24
38 30 51 10z"/>
<path d="M2788 438 c-3 -11 -3 -60 1 -113 1 -8 8 -15 16 -15 12 0 15 14 15 70
0 53 -3 70 -14 70 -8 0 -16 -6 -18 -12z"/>
<path d="M2857 443 c-4 -3 -7 -35 -7 -70 0 -49 3 -63 15 -63 16 0 18 7 17 57
-2 34 19 58 43 49 11 -4 15 -20 15 -56 0 -36 4 -50 14 -50 15 0 23 45 18 93
-4 36 -44 57 -73 39 -11 -7 -19 -8 -19 -2 0 11 -13 13 -23 3z"/>
<path d="M3016 428 c-23 -32 -20 -81 5 -103 17 -16 25 -17 50 -8 26 10 30 10
25 -3 -3 -9 -6 -20 -6 -25 0 -6 -19 -8 -47 -3 -43 6 -46 5 -33 -9 34 -34 106
-21 114 20 15 82 0 181 -23 145 -4 -7 -12 -8 -21 -2 -25 16 -48 11 -64 -12z
m70 -20 c5 -7 9 -20 8 -28 -1 -8 -2 -21 -3 -27 -2 -22 -49 -15 -56 7 -14 45
27 82 51 48z"/>
<path d="M3238 436 c-34 -26 -18 -58 35 -71 15 -4 27 -11 27 -15 0 -18 -23
-22 -46 -9 -29 15 -42 6 -24 -16 17 -21 79 -16 94 8 15 23 -3 51 -37 55 -14 2
-28 10 -31 19 -5 13 0 15 34 9 44 -7 47 -5 24 18 -19 19 -53 20 -76 2z"/>
<path d="M3530 430 c-11 -11 -21 -26 -21 -32 -5 -54 20 -88 66 -88 41 0 58 21
58 67 0 62 -62 94 -103 53z m68 -27 c10 -19 0 -57 -18 -68 -26 -16 -57 55 -33
78 12 13 42 7 51 -10z"/>
<path d="M3669 448 c-1 -2 -2 -34 -4 -71 -2 -58 0 -68 14 -65 11 2 16 14 17
39 1 47 10 69 29 69 8 0 15 7 15 15 0 8 -7 15 -15 15 -8 0 -15 -5 -15 -12 0
-9 -3 -9 -12 0 -11 11 -26 16 -29 10z"/>
<path d="M3880 430 c-26 -26 -26 -81 -1 -104 24 -22 80 -18 95 6 16 26 0 33
-30 13 -26 -17 -28 -17 -41 1 -20 27 -16 62 8 69 12 4 26 2 32 -4 13 -13 37
-14 37 -2 0 18 -32 41 -56 41 -13 0 -33 -9 -44 -20z"/>
<path d="M4017 443 c-12 -12 -7 -110 6 -121 6 -6 33 -10 60 -10 l48 1 -2 61
c-2 69 -4 77 -22 70 -8 -3 -12 -20 -11 -45 2 -48 -20 -77 -43 -58 -8 7 -13 24
-13 38 4 64 -3 84 -23 64z"/>
<path d="M1240 403 c0 -8 14 -13 40 -13 22 0 40 5 40 10 0 6 -6 10 -12 11 -7
0 -25 2 -40 3 -17 1 -28 -3 -28 -11z"/>
<path d="M4267 343 c-4 -3 -7 -12 -7 -20 0 -15 26 -18 34 -4 7 11 -18 33 -27
24z"/>
</g>
</svg>
